<svg width="17" height="33" viewBox="0 0 17 33" fill="none" xmlns="http://www.w3.org/2000/svg">
<path d="M8.34463 18.741C9.39562 18.741 10.2476 17.8845 10.2476 16.828C10.2476 15.7715 9.39562 14.915 8.34463 14.915C7.29364 14.915 6.44165 15.7715 6.44165 16.828C6.44165 17.8845 7.29364 18.741 8.34463 18.741Z" fill="black"/>
<path d="M5.89771 20.9663L7.25098 22.9843H9.43809L10.7923 20.9663H5.89771Z" fill="black"/>
<path d="M5.87915 12.6899H10.8109L9.45762 10.6719H7.2334L5.87915 12.6899Z" fill="black"/>
<path d="M11.1115 0.421677C10.4407 -0.0298232 9.53268 0.150777 9.08354 0.825082L2.38746 10.8631L2.36988 10.8896C2.35133 10.919 1.91 11.6159 1.44036 12.5857C0.128091 15.2917 0.0304525 18.3865 1.17185 21.0758C1.45305 21.7374 1.79186 22.3371 2.18046 22.8573C3.16759 24.1794 5.09499 26.7706 6.23443 28.3028L7.95874 25.7135C6.82808 24.1931 5.34494 22.1997 4.51794 21.0935C4.27091 20.7627 4.04927 20.3691 3.86083 19.9245C3.05238 18.0194 3.12756 15.8149 4.06782 13.8754C4.43104 13.1255 4.77571 12.566 4.82746 12.4836L11.5128 2.4603C11.9619 1.78599 11.7823 0.873176 11.1115 0.421677Z" fill="black"/>
<path d="M15.5181 12.58C15.2369 11.9174 14.8981 11.3187 14.5095 10.7995C13.5712 9.54314 11.756 7.10308 10.4555 5.354L8.73119 7.94326C9.94191 9.57062 11.3733 11.4944 12.172 12.5633C12.419 12.8941 12.6397 13.2876 12.8291 13.7323C13.6375 15.6374 13.5624 17.8419 12.6221 19.7814C12.2579 20.5323 11.9132 21.0917 11.8625 21.1732L4.53662 32.1731H8.05553L14.3034 22.7917L14.321 22.7652C14.3396 22.7358 14.7809 22.0389 15.2515 21.0691C16.5638 18.3631 16.6614 15.2684 15.52 12.579L15.5181 12.58Z" fill="black"/>
</svg>
