<svg width="100%" height="100%" viewBox="0 0 3132 1475" fill="none" xmlns="http://www.w3.org/2000/svg">
<path d="M0 0 C62.04 0 124.08 0 188 0 C192.17800686 4.17800686 196.08985298 8.19116124 199.91796875 12.6328125 C202.56045727 15.63721784 205.27819734 18.56753928 208 21.5 C211.21174153 24.96272791 214.41103433 28.42649069 217.5 32 C221.05817847 36.11360146 224.7584212 40.09095275 228.45483398 44.07983398 C232.24901264 48.17712069 235.99554128 52.31419343 239.72265625 56.47265625 C242.29809775 59.33082203 244.89685764 62.16710261 247.5 65 C251.59169207 69.45332617 255.64822977 73.93659888 259.6875 78.4375 C262.27615003 81.30600409 264.88585146 84.1547665 267.5 87 C271.59166107 91.45335487 275.64822946 95.93659854 279.6875 100.4375 C282.27615003 103.30600409 284.88585146 106.1547665 287.5 109 C291.59166107 113.45335487 295.64822946 117.93659854 299.6875 122.4375 C302.27615003 125.30600409 304.88585146 128.1547665 307.5 131 C311.59166107 135.45335487 315.64822946 139.93659854 319.6875 144.4375 C322.27615003 147.30600409 324.88585146 150.1547665 327.5 153 C331.59166107 157.45335487 335.64822946 161.93659854 339.6875 166.4375 C342.27615003 169.30600409 344.88585146 172.1547665 347.5 175 C351.59166107 179.45335487 355.64822946 183.93659854 359.6875 188.4375 C362.27615003 191.30600409 364.88585146 194.1547665 367.5 197 C371.59166107 201.45335487 375.64822946 205.93659854 379.6875 210.4375 C382.27615003 213.30600409 384.88585146 216.1547665 387.5 219 C391.59166107 223.45335487 395.64822946 227.93659854 399.6875 232.4375 C402.27615003 235.30600409 404.88585146 238.1547665 407.5 241 C411.59166107 245.45335487 415.64822946 249.93659854 419.6875 254.4375 C422.27615003 257.30600409 424.88585146 260.1547665 427.5 263 C431.58917448 267.45064847 435.64369084 271.93078083 439.6796875 276.4296875 C442.31079783 279.34428447 444.96652475 282.23539224 447.625 285.125 C450.6022264 288.36213091 453.55952966 291.61137856 456.4375 294.9375 C460.01937309 299.069109 463.73837958 303.06929927 467.45458984 307.07958984 C471.24887039 311.17693929 474.99546447 315.31410773 478.72265625 319.47265625 C481.29809775 322.33082203 483.89685764 325.16710261 486.5 328 C490.59169207 332.45332617 494.64822977 336.93659888 498.6875 341.4375 C501.27615003 344.30600409 503.88585146 347.1547665 506.5 350 C510.59166107 354.45335487 514.64822946 358.93659854 518.6875 363.4375 C521.27615003 366.30600409 523.88585146 369.1547665 526.5 372 C530.58295768 376.44388211 534.63236514 380.91621933 538.66015625 385.41015625 C540.40799439 387.34474171 542.16486203 389.26827888 543.93359375 391.18359375 C544.43246094 391.72435547 544.93132813 392.26511719 545.4453125 392.82226562 C546.41878107 393.87600713 547.39396426 394.92816798 548.37109375 395.97851562 C550.46369821 398.24448993 552.28357338 400.42536007 554 403 C554.495 203.515 554.495 203.515 555 0 C600.87 0 646.74 0 694 0 C694 178.2 694 356.4 694 540 C631.63 540 569.26 540 505 540 C494.23767606 529.23767606 494.23767606 529.23767606 489.96875 524.25390625 C487.41021464 521.32478938 484.76951134 518.47641587 482.125 515.625 C477.80227226 510.96081085 473.52183101 506.26305558 469.27734375 501.52734375 C466.70190225 498.66917797 464.10314236 495.83289739 461.5 493 C457.40830793 488.54667383 453.35177023 484.06340112 449.3125 479.5625 C446.72384997 476.69399591 444.11414854 473.8452335 441.5 471 C437.41082552 466.54935153 433.35630916 462.06921917 429.3203125 457.5703125 C426.68920217 454.65571553 424.03347525 451.76460776 421.375 448.875 C418.3977736 445.63786909 415.44047034 442.38862144 412.5625 439.0625 C408.98062691 434.930891 405.26162042 430.93070073 401.54541016 426.92041016 C397.75112961 422.82306071 394.00453553 418.68589227 390.27734375 414.52734375 C387.70190225 411.66917797 385.10314236 408.83289739 382.5 406 C378.40830793 401.54667383 374.35177023 397.06340112 370.3125 392.5625 C367.72384997 389.69399591 365.11414854 386.8452335 362.5 384 C358.40833893 379.54664513 354.35177054 375.06340146 350.3125 370.5625 C347.72384997 367.69399591 345.11414854 364.8452335 342.5 362 C338.40833893 357.54664513 334.35177054 353.06340146 330.3125 348.5625 C327.72384997 345.69399591 325.11414854 342.8452335 322.5 340 C318.40833893 335.54664513 314.35177054 331.06340146 310.3125 326.5625 C307.72384997 323.69399591 305.11414854 320.8452335 302.5 318 C298.40833893 313.54664513 294.35177054 309.06340146 290.3125 304.5625 C287.72384964 301.69399555 285.11410892 298.84527019 282.5 296 C276.89696824 289.90012856 271.35787086 283.74438837 265.828125 277.578125 C261.27764629 272.51127991 256.69394033 267.47637512 252.08642578 262.46142578 C248.46771524 258.51936798 244.88654298 254.54500503 241.3125 250.5625 C238.72384997 247.69399591 236.11414854 244.8452335 233.5 242 C229.40833893 237.54664513 225.35177054 233.06340146 221.3125 228.5625 C218.72384997 225.69399591 216.11414854 222.8452335 213.5 220 C209.40833893 215.54664513 205.35177054 211.06340146 201.3125 206.5625 C198.72384997 203.69399591 196.11414854 200.8452335 193.5 198 C189.40833893 193.54664513 185.35177054 189.06340146 181.3125 184.5625 C178.72384997 181.69399591 176.11414854 178.8452335 173.5 176 C169.40958222 171.54799832 165.35404044 167.06630983 161.31640625 162.56640625 C157.86068155 158.73771969 154.36605827 154.94520479 150.87109375 151.15234375 C147.21135224 147.13409695 143.61086577 143.06222399 140 139 C139.67 271.33 139.34 403.66 139 540 C93.13 540 47.26 540 0 540 C0 361.8 0 183.6 0 0 Z " fill="currentColor" transform="translate(1655,469)"/>
<path d="M0 0 C64.700625 -0.020625 129.40125 -0.04125 196.0625 -0.0625 C216.47488525 -0.071604 236.88727051 -0.08070801 257.91821289 -0.09008789 C282.88757324 -0.09460449 282.88757324 -0.09460449 294.58518982 -0.09544373 C302.73668203 -0.09637353 310.88816734 -0.10003012 319.03965759 -0.10557556 C328.4561561 -0.11197203 337.87264802 -0.11482871 347.28914871 -0.11344495 C352.09893711 -0.11284638 356.90871079 -0.1137492 361.71849644 -0.11921513 C411.40420332 -0.17292693 411.40420332 -0.17292693 430.1875 2.1875 C431.20755127 2.31568115 432.22760254 2.4438623 433.27856445 2.57592773 C483.9965688 9.37548436 532.57280674 28.80140068 571 63 C571.50869629 63.44698242 572.01739258 63.89396484 572.54150391 64.35449219 C619.13419207 105.3796864 644.00319614 165.11962985 651 226 C651.10296387 226.88107422 651.20592773 227.76214844 651.31201172 228.66992188 C659.76714241 304.80616981 646.50570101 387.75713518 598 449 C594.81852524 452.80998099 591.41567629 456.4006852 588 460 C586.91082582 461.28674531 585.82713054 462.57815626 584.75 463.875 C546.46829333 507.58736738 486.72036212 530.73746316 430.3125 537.75 C428.92732178 537.92354004 428.92732178 537.92354004 427.51416016 538.10058594 C405.45382619 540.59769582 383.1796522 540.14107267 361.01646374 540.11607273 C356.09106845 540.11166089 351.16567403 540.11317028 346.24027729 540.11389065 C336.70816034 540.11441923 327.17605292 540.10983209 317.64393841 540.10338932 C306.6026719 540.09615187 295.561411 540.09539253 284.5201416 540.09460449 C255.40925957 540.08936727 226.29837964 540.07540604 197.1875 540.0625 C132.115625 540.041875 67.04375 540.02125 0 540 C0 361.8 0 183.6 0 0 Z M139 118 C139 218.32 139 318.64 139 422 C176.846875 422.061875 214.69375 422.12375 253.6875 422.1875 C271.53783325 422.22846802 271.53783325 422.22846802 289.7487793 422.27026367 C300.52188744 422.28030397 300.52188744 422.28030397 311.29499817 422.28633118 C316.05126747 422.28909864 320.80743381 422.30022963 325.56367493 422.31672668 C402.64066928 423.06680205 402.64066928 423.06680205 471 391 C471.75539063 390.40960937 472.51078125 389.81921875 473.2890625 389.2109375 C498.76123259 368.05913548 508.98436025 333.97340737 512.40673828 302.22705078 C516.8034497 253.49219466 514.39692457 200.16727616 482.88671875 160.328125 C463.6475355 137.67724014 434.29050307 126.92827995 405.8125 121.8125 C404.96623047 121.65765137 404.11996094 121.50280273 403.24804688 121.34326172 C384.97365359 118.26740688 366.60146094 117.7081974 348.11376953 117.77294922 C345.77822311 117.77356374 343.44267631 117.77329177 341.10713005 117.7722187 C334.92388067 117.77177221 328.7407107 117.78325664 322.55747986 117.79743958 C316.7283405 117.80893699 310.89921923 117.80937161 305.07006836 117.81079102 C288.08836863 117.82123296 271.10668327 117.84915547 254.125 117.875 C216.13375 117.91625 178.1425 117.9575 139 118 Z " fill="currentColor" transform="translate(945,469)"/>
<path d="M0 0 C7.72241966 5.79623767 14.05692375 12.68181255 19 21 C19.45890625 21.76570313 19.9178125 22.53140625 20.390625 23.3203125 C28.86769599 38.79352039 31.05570926 58.5683747 26.18457031 75.60131836 C22.23895171 86.9217958 15.91115904 97.21046884 9.08297729 106.99209595 C7.74507107 108.90911557 6.42024537 110.83466779 5.09790039 112.76245117 C3.63876018 114.88921663 2.17880367 117.01537898 0.71525574 119.13911438 C-4.9889411 127.41705155 -10.60897551 135.75147399 -16.22671509 144.08822632 C-18.0782418 146.83586056 -19.9310518 149.58262645 -21.78393555 152.3293457 C-30.81610706 165.72527534 -39.78771896 179.1608706 -48.73782349 192.61172485 C-58.20997811 206.84527808 -67.75094472 221.03106605 -77.32275391 235.19775391 C-86.2637472 248.43310795 -95.1521798 261.70219558 -104 275 C-114.05025522 290.10500049 -124.16547087 305.16453966 -134.32275391 320.19775391 C-143.2637472 333.43310795 -152.1521798 346.70219558 -161 360 C-171.05025522 375.10500049 -181.16547087 390.16453966 -191.32275391 405.19775391 C-200.85021167 419.30125142 -210.31383749 433.44589522 -219.74075317 447.61676025 C-227.98677507 460.01056916 -236.28634265 472.36664316 -244.62643433 484.69732666 C-258.45907486 505.14898301 -272.09689294 525.72449236 -285.63903809 546.36956787 C-288.60930304 550.89562165 -291.60291461 555.40458585 -294.62634277 559.89533997 C-297.10235224 563.6889779 -299.33211989 567.62107036 -301.5625 571.5625 C-302.07570801 572.46742188 -302.58891602 573.37234375 -303.11767578 574.3046875 C-304.7524505 577.19907519 -306.37800807 580.09843127 -308 583 C-308.5254541 583.93827637 -309.0509082 584.87655273 -309.59228516 585.84326172 C-322.91490683 609.74017516 -335.20963579 634.04282258 -344 660 C-344.34224609 660.99435059 -344.68449219 661.98870117 -345.03710938 663.01318359 C-351.37464584 681.64827556 -355.61554123 700.63852807 -359 720 C-359.1949707 721.11294434 -359.38994141 722.22588867 -359.59082031 723.37255859 C-364.74481029 754.73503108 -364.37821165 789.70473692 -359 821 C-358.83371094 822.02996094 -358.66742188 823.05992187 -358.49609375 824.12109375 C-349.97883834 876.17098789 -329.1901197 922.9384982 -296.96972656 964.4375 C-293.91522281 968.4112322 -290.95649408 972.45311369 -288 976.5 C-283.0752753 983.22563031 -278.06649898 989.88055114 -273 996.5 C-267.34646605 1003.88641792 -261.78529806 1011.33194466 -256.2890625 1018.8359375 C-251.92722968 1024.77671433 -247.47945452 1030.6475326 -243 1036.5 C-237.34709535 1043.88559574 -231.78566162 1051.32967004 -226.29125977 1058.83374023 C-221.91217394 1064.79958611 -217.43922739 1070.68881759 -212.9375 1076.5625 C-207.47804344 1083.6889662 -202.15285679 1090.89191237 -196.93115234 1098.19384766 C-192.74578604 1104.02305222 -188.42628789 1109.74093987 -184.0625 1115.4375 C-178.35814479 1122.88405867 -172.70869131 1130.36453574 -167.18383789 1137.94555664 C-164.16213144 1142.08977317 -161.09458673 1146.18594932 -157.9453125 1150.234375 C-156.9555542 1151.52480713 -156.9555542 1151.52480713 -155.94580078 1152.84130859 C-154.67491275 1154.49617384 -153.38993966 1156.14034275 -152.08935547 1157.77197266 C-151.52361816 1158.51495605 -150.95788086 1159.25793945 -150.375 1160.0234375 C-149.86710937 1160.67231934 -149.35921875 1161.32120117 -148.8359375 1161.98974609 C-148 1164 -148 1164 -148.5065918 1166.2109375 C-150.62246444 1170.16250347 -153.03900305 1173.87048555 -155.51953125 1177.6015625 C-156.08168335 1178.45444855 -156.64383545 1179.30733459 -157.22302246 1180.18606567 C-159.08144005 1183.00220957 -160.94674152 1185.81371523 -162.8125 1188.625 C-164.11563625 1190.59527329 -165.41861242 1192.56565246 -166.72143555 1194.53613281 C-177.05147365 1210.14052567 -187.48920259 1225.67208882 -197.97973633 1241.16894531 C-199.15970777 1242.91208243 -200.33964027 1244.65524592 -201.51953125 1246.3984375 C-202.08364212 1247.23185669 -202.64775299 1248.06527588 -203.22895813 1248.9239502 C-206.58041548 1253.88158885 -209.90556363 1258.85534838 -213.19921875 1263.8515625 C-213.57983963 1264.42793457 -213.96046051 1265.00430664 -214.35261536 1265.59814453 C-216.02576717 1268.13308394 -217.69288884 1270.67157965 -219.34887695 1273.21777344 C-222.2491506 1277.62352942 -225.08654723 1281.45160813 -229 1285 C-236.74771117 1274.89277241 -244.47518138 1264.77473417 -252 1254.5 C-256.92561063 1247.77499916 -261.93357373 1241.11953982 -267 1234.5 C-272.67230923 1227.08717638 -278.26147242 1219.62071943 -283.78125 1212.09375 C-287.98326094 1206.36719994 -292.23040368 1200.67631017 -296.5 1195 C-301.35209548 1188.54927333 -306.16411515 1182.07166116 -310.9375 1175.5625 C-316.5476984 1167.91685547 -322.2752143 1160.36661918 -328.03881836 1152.83618164 C-333.00673002 1146.33396502 -337.87586332 1139.76537382 -342.7109375 1133.1640625 C-347.07277032 1127.22328567 -351.52054548 1121.3524674 -356 1115.5 C-361.65353395 1108.11358208 -367.21470194 1100.66805534 -372.7109375 1093.1640625 C-377.07277163 1087.22328388 -381.52062409 1081.35252911 -386 1075.5 C-391.67235485 1068.08711675 -397.26713533 1060.62448038 -402.77905273 1053.09155273 C-405.7345209 1049.0568712 -408.71495879 1045.04559071 -411.75 1041.0703125 C-437.98791872 1006.66941099 -458.49520665 968.75420865 -473 928 C-473.57741943 926.39705078 -473.57741943 926.39705078 -474.16650391 924.76171875 C-485.89115615 891.95037522 -493.3711361 858.04488574 -497.25 823.4375 C-497.37489807 822.32864441 -497.37489807 822.32864441 -497.50231934 821.1973877 C-499.32765868 804.7436375 -500.21374924 788.30354997 -500.1875 771.75 C-500.18689575 771.02832642 -500.1862915 770.30665283 -500.18566895 769.56311035 C-499.98754765 680.97389665 -473.96966521 596.51629891 -430.59863281 519.83496094 C-428.82722623 516.69360889 -427.08227796 513.53816302 -425.3359375 510.3828125 C-416.83915397 495.11238343 -407.60837245 480.48016762 -397.75488281 466.04199219 C-392.82209183 458.81200851 -387.93134518 451.55344721 -383.03485107 444.29885864 C-381.80397617 442.47564528 -380.57257204 440.65278909 -379.34063721 438.83029175 C-368.27073638 422.45238857 -357.36353997 405.97077613 -346.54174805 389.42797852 C-337.16810505 375.12076579 -337.16810505 375.12076579 -333.03125 369.546875 C-327.41796027 361.97918729 -322.36408876 354.02292844 -317.20605469 346.14205933 C-308.06326375 332.17811418 -298.88779508 318.23817437 -289.5 304.4375 C-289.09279724 303.83865997 -288.68559448 303.23981995 -288.26605225 302.62283325 C-286.57028224 300.12947616 -284.87404621 297.63643719 -283.17706299 295.14390564 C-277.07290545 286.17488642 -271.00508524 277.18128313 -264.9375 268.1875 C-264.01662598 266.82273026 -264.01662598 266.82273026 -263.07714844 265.4303894 C-253.4216113 251.11650402 -243.82696353 236.76291801 -234.26217651 222.38827515 C-224.79002189 208.15472192 -215.24905528 193.96893395 -205.67724609 179.80224609 C-196.7362528 166.56689205 -187.8478202 153.29780442 -179 140 C-168.95511158 124.90306554 -158.84605883 109.85103923 -148.69335938 94.82641602 C-138.27071253 79.39993885 -127.92324889 63.92450761 -117.62304688 48.41601562 C-112.11518236 40.12835021 -106.57748256 31.86185168 -100.9765625 23.63671875 C-100.44538818 22.85329102 -99.91421387 22.06986328 -99.36694336 21.26269531 C-87.97670367 4.59666979 -73.34170762 -6.95091971 -53.34375 -11.26953125 C-34.61261106 -14.75824837 -15.70406265 -10.73636167 0 0 Z " fill="currentColor" transform="translate(500,12)"/>
<path d="M0 0 C3.46089672 1.43739237 5.16535462 3.13819083 7.3984375 6.12109375 C8.03555664 6.96454346 8.67267578 7.80799316 9.32910156 8.67700195 C10.00424805 9.58796631 10.67939453 10.49893066 11.375 11.4375 C12.08108398 12.37746826 12.78716797 13.31743652 13.51464844 14.28588867 C15.68635059 17.18335559 17.84542381 20.08978103 20 23 C20.63389648 23.85561523 21.26779297 24.71123047 21.92089844 25.59277344 C24.85718562 29.56187799 27.78327016 33.53832707 30.703125 37.51953125 C33.77349298 41.70142976 36.87976751 45.85522902 40 50 C44.29082202 55.69972739 48.53023888 61.43500053 52.75 67.1875 C58.42318222 74.91563489 64.21139146 82.55002954 70.03808594 90.1628418 C75.00622353 96.66539815 79.87562263 103.23429756 84.7109375 109.8359375 C89.07277032 115.77671433 93.52054548 121.6475326 98 127.5 C103.65353395 134.88641792 109.21470194 142.33194466 114.7109375 149.8359375 C119.07277294 155.7767179 123.52070271 161.64740917 128 167.5 C136.0413063 178.01139798 143.89060474 188.65631162 151.70898438 199.33398438 C158.390649 208.45365662 165.13170704 217.51978115 172 226.5 C189.06024964 248.83885305 205.34885814 271.38141282 219 296 C219.38462402 296.68416992 219.76924805 297.36833984 220.16552734 298.07324219 C250.61690156 352.43468199 267.37584145 416.01689277 272 478 C272.05639648 478.70463379 272.11279297 479.40926758 272.17089844 480.13525391 C279.22593224 571.3706171 256.70248867 659.90834532 216 741 C215.45166504 742.09393066 214.90333008 743.18786133 214.33837891 744.31494141 C207.35069828 758.16825679 199.75754977 771.63558099 191.81005859 784.9597168 C190.54283247 787.08822596 189.28621072 789.22306789 188.03759766 791.36254883 C182.27973414 801.17718252 175.9910993 810.59145101 169.58544922 819.99279785 C166.37517886 824.7059342 163.17915744 829.42869999 159.984375 834.15234375 C159.32489868 835.1272879 158.66542236 836.10223206 157.98596191 837.10671997 C150.90248193 847.59653253 143.94704669 858.16955779 137 868.75 C128.90550803 881.07050939 120.78749434 893.37077555 112.5 905.5625 C111.88584229 906.46610764 111.88584229 906.46610764 111.25927734 907.38796997 C109.56449945 909.88067815 107.86902721 912.37291252 106.17285156 914.8646698 C100.09633633 923.79282074 94.0442686 932.73749415 88 941.6875 C87.390354 942.5901358 86.78070801 943.49277161 86.15258789 944.42276001 C76.67186615 958.46888066 67.30634872 972.58785753 58 986.75 C49.9042486 999.06970301 41.78750993 1011.37075262 33.5 1023.5625 C32.88584229 1024.46610764 32.88584229 1024.46610764 32.25927734 1025.38796997 C30.56449945 1027.88067815 28.86902721 1030.37291252 27.17285156 1032.8646698 C21.09633628 1041.79282081 15.04428468 1050.73750493 9 1059.6875 C8.08652802 1061.03995819 8.08652802 1061.03995819 7.15460205 1062.41973877 C-2.3689157 1076.52903769 -11.77620434 1090.71193966 -21.125 1104.9375 C-30.68037243 1119.47728847 -40.32222182 1133.94539399 -50.12971497 1148.31625366 C-55.52738357 1156.23097015 -60.88420369 1164.17334953 -66.2421875 1172.11495972 C-67.95084847 1174.64704243 -69.66091758 1177.17816906 -71.37109375 1179.70922852 C-71.92049622 1180.53293945 -72.46989868 1181.35665039 -73.03594971 1182.20532227 C-74.2301405 1183.95591871 -75.46221942 1185.68111233 -76.72576904 1187.38232422 C-80.72297985 1192.91767713 -83.46215378 1197.94112241 -85.79163265 1204.33063889 C-90.49565187 1216.90946024 -96.58733281 1229.57428432 -109 1236 C-132.40325417 1243.16278195 -159.82776648 1239.91994912 -183.9153735 1238.80905896 C-193.63956093 1238.36841921 -203.36494222 1238.15754535 -213.09666371 1237.96262062 C-233.0755283 1237.55745888 -253.03649427 1236.87390017 -273 1236 C-271.69325038 1232.64622925 -270.31665102 1229.71773221 -268.33300781 1226.71069336 C-267.79774475 1225.89471176 -267.26248169 1225.07873016 -266.71099854 1224.23802185 C-265.84085114 1222.92717369 -265.84085114 1222.92717369 -264.953125 1221.58984375 C-264.04164703 1220.2066671 -264.04164703 1220.2066671 -263.11175537 1218.79554749 C-261.8193384 1216.83647475 -260.52470354 1214.87886365 -259.22802734 1212.92260742 C-257.29367558 1210.00341229 -255.36694072 1207.07931322 -253.44140625 1204.15429688 C-247.37855968 1194.96689083 -241.24030526 1185.84620376 -234.89453125 1176.8515625 C-228.46720996 1167.74121251 -222.30554013 1158.4737772 -216.20578003 1149.14178467 C-202.60853669 1128.34710505 -188.75719723 1107.72964036 -174.82958984 1087.15538025 C-171.1974013 1081.78497541 -167.59076508 1076.39817432 -164 1071 C-159.86036421 1064.77668126 -155.69388837 1058.57234866 -151.50390625 1052.3828125 C-138.88986908 1033.74480394 -126.35717174 1015.05951126 -114 996.25 C-105.90463589 983.93004875 -97.7875052 971.62924043 -89.5 959.4375 C-89.09056152 958.83509491 -88.68112305 958.23268982 -88.25927734 957.61203003 C-86.56449945 955.11932185 -84.86902721 952.62708748 -83.17285156 950.1353302 C-77.09633633 941.20717926 -71.0442686 932.26250585 -65 923.3125 C-64.390354 922.4098642 -63.78070801 921.50722839 -63.15258789 920.57723999 C-53.67186615 906.53111934 -44.30634872 892.41214247 -35 878.25 C-26.9042486 865.93029699 -18.78750993 853.62924738 -10.5 841.4375 C-9.88584229 840.53389236 -9.88584229 840.53389236 -9.25927734 839.61203003 C-7.56449945 837.11932185 -5.86902721 834.62708748 -4.17285156 832.1353302 C1.90366329 823.20717982 7.95585184 814.2625866 14 805.3125 C14.6059903 804.41518158 15.21198059 803.51786316 15.83633423 802.59335327 C28.48625707 783.84948766 40.93891047 764.97728514 53.34429932 746.07095337 C56.27627482 741.60633143 59.22873083 737.15663803 62.2063446 732.72233582 C66.11649885 726.89672642 69.9132647 721.04341033 73.375 714.9375 C73.82576904 714.14915771 74.27653809 713.36081543 74.7409668 712.54858398 C76.16993426 710.03750492 77.58698836 707.52008859 79 705 C79.47163574 704.16114258 79.94327148 703.32228516 80.42919922 702.45800781 C93.54912082 679.02608553 105.72300855 655.2330738 115 630 C115.32548828 629.11860352 115.65097656 628.23720703 115.98632812 627.32910156 C122.91743396 608.27941297 127.93087109 588.47936656 131.3125 568.5 C131.45969482 567.63141357 131.60688965 566.76282715 131.75854492 565.86791992 C134.47992078 548.58901449 135.37874221 531.4109203 135.3125 513.9375 C135.31034485 512.908526 135.3081897 511.879552 135.30596924 510.81939697 C135.08718886 445.53305721 115.88161727 380.19551843 76 328 C75.37899414 327.18595703 74.75798828 326.37191406 74.11816406 325.53320312 C71.35840042 321.91677677 68.59818623 318.30070775 65.83325195 314.68823242 C62.13725536 309.84845633 58.50100907 304.98252354 55 300 C50.2369233 293.22353809 45.20093518 286.6641888 40.1640625 280.08984375 C35.71275775 274.27147162 31.3275176 268.41092227 27 262.5 C22.07450846 255.77491782 17.06651293 249.11946708 12 242.5 C6.34646605 235.11358208 0.78529806 227.66805534 -4.7109375 220.1640625 C-9.07277032 214.22328567 -13.52054548 208.3524674 -18 202.5 C-23.65067561 195.11731654 -29.21023936 187.67640427 -34.70214844 180.17504883 C-39.14481069 174.12220533 -43.68376475 168.14750357 -48.25 162.1875 C-53.46484193 155.37914847 -58.55383693 148.51559703 -63.46875 141.48828125 C-65.40404889 138.76756296 -67.44747083 136.15157209 -69.53125 133.54296875 C-70.13686768 132.77823242 -70.74248535 132.01349609 -71.36645508 131.22558594 C-72.55656981 129.73024403 -73.75910116 128.2446785 -74.9753418 126.77050781 C-75.51328369 126.09213867 -76.05122559 125.41376953 -76.60546875 124.71484375 C-77.09168701 124.11792725 -77.57790527 123.52101074 -78.07885742 122.90600586 C-79.40785991 120.15606618 -78.99163137 118.87053975 -78 116 C-76.64940195 113.88836363 -75.28224816 111.93656717 -73.76953125 109.94921875 C-69.56939728 104.24850063 -65.57949973 98.44252262 -61.69921875 92.51953125 C-60.8643821 91.24699242 -60.8643821 91.24699242 -60.01268005 89.94874573 C-58.84329545 88.16423386 -57.67475163 86.37917079 -56.50698853 84.59359741 C-42.75205564 63.56911293 -28.75171427 42.71606441 -14.66734314 21.91139221 C-9.74240213 14.63138766 -4.86254998 7.32178653 0 0 Z " fill="currentColor" transform="translate(466,239)"/>
<path d="M0 0 C62.04 0 124.08 0 188 0 C294.875 206.625 294.875 206.625 295.81253052 208.43756104 C296.43742658 209.64569206 297.06232485 210.85382195 297.68722534 212.06195068 C299.25133378 215.0858699 300.81540355 218.1098091 302.37939453 221.13378906 C305.47864245 227.12609123 308.57851793 233.11806707 311.6796875 239.109375 C318.32080487 251.94098409 324.94918598 264.77903714 331.5625 277.625 C337.8680891 289.87306251 344.19717995 302.10864168 350.54296875 314.3359375 C354.18065343 321.34576729 357.80993045 328.35993272 361.4375 335.375 C361.74882874 335.97703247 362.06015747 336.57906494 362.38092041 337.19934082 C363.95699054 340.24710963 365.53296477 343.29492801 367.10888672 346.34277344 C369.92652212 351.79198254 372.74504757 357.24073128 375.56350708 362.68951416 C377.12570796 365.70965719 378.68785105 368.72983011 380.25 371.75 C380.87499972 372.95833348 381.49999972 374.16666681 382.125 375.375 C398.375 406.79166667 414.625 438.20833333 430.875 469.625 C431.18433472 470.22304443 431.49366943 470.82108887 431.81237793 471.43725586 C432.43779369 472.64639841 433.06320058 473.85554556 433.68859863 475.06469727 C435.24466517 478.07318703 436.80088233 481.08159868 438.35742188 484.08984375 C441.2466199 489.67403351 444.13441197 495.25893558 447.01696777 500.84655762 C448.35570539 503.4413788 449.69528033 506.03576731 451.03491211 508.63012695 C451.96223457 510.42682889 452.88836914 512.22414377 453.81445312 514.02148438 C457.33999637 520.85693046 457.33999637 520.85693046 460.9921875 527.625 C461.48029907 528.51270081 461.48029907 528.51270081 461.97827148 529.41833496 C462.88503472 531.06119424 463.7997009 532.69968436 464.71484375 534.33789062 C466 537 466 537 466 540 C415.18 540 364.36 540 312 540 C303.75 523.5 295.5 507 287 490 C283.7 483.73 280.4 477.46 277 471 C275.05640618 467.20230612 273.12060318 463.40422849 271.2109375 459.58984375 C270.73677399 458.64484512 270.26261047 457.6998465 269.77407837 456.72621155 C268.79709555 454.7772141 267.821122 452.82771037 266.84619141 450.87768555 C265.3458052 447.87915401 263.83898061 444.88390942 262.33203125 441.88867188 C261.37461121 439.97675714 260.41756496 438.06465517 259.4609375 436.15234375 C259.0110849 435.25982407 258.5612323 434.36730438 258.0977478 433.44773865 C257.68956818 432.62830276 257.28138855 431.80886688 256.86083984 430.96459961 C256.31984146 429.88474037 256.31984146 429.88474037 255.76791382 428.7830658 C255 427 255 427 255 425 C148.74 425 42.48 425 -67 425 C-67.66 426.98 -68.32 428.96 -69 431 C-69.9045095 432.97945076 -70.84787199 434.9414502 -71.82226562 436.88745117 C-72.39046021 438.02691696 -72.95865479 439.16638275 -73.54406738 440.34037781 C-74.16465594 441.57464468 -74.78538739 442.80883971 -75.40625 444.04296875 C-76.05233571 445.33394456 -76.69812267 446.62506992 -77.34362793 447.91633606 C-78.69959372 450.62670549 -80.05822615 453.3357151 -81.41894531 456.04370117 C-83.13297457 459.45499877 -84.8418784 462.86882966 -86.54898071 466.28359795 C-98.07610693 489.33682289 -98.07610693 489.33682289 -104.03125 500.55078125 C-110.89073099 513.59565901 -117.40877378 526.81754757 -124 540 C-174.49 540 -224.98 540 -277 540 C-276.2155081 536.07754052 -275.61941571 533.87784139 -273.8737793 530.48291016 C-273.43208908 529.61654938 -272.99039886 528.7501886 -272.5353241 527.85757446 C-272.05315933 526.92746552 -271.57099457 525.99735657 -271.07421875 525.0390625 C-270.31997368 523.56667618 -270.31997368 523.56667618 -269.55049133 522.06454468 C-267.93524379 518.91503841 -266.31143616 515.77003349 -264.6875 512.625 C-263.6368222 510.57840603 -262.58668687 508.53153347 -261.53710938 506.484375 C-255.84430969 495.39406918 -250.09450621 484.33401998 -244.31996155 473.28610229 C-239.95383237 464.92691027 -235.64242016 456.54042721 -231.34906006 448.14367676 C-224.67922295 435.10066146 -217.98019302 422.07366332 -211.22485352 409.07470703 C-206.47911151 399.93757914 -201.76793531 390.78292476 -197.0625 381.625 C-191.55637951 370.90899542 -186.04009944 360.19848298 -180.5 349.5 C-174.98149458 338.84280832 -169.48546982 328.17423199 -164 317.5 C-157.88713997 305.6051327 -151.75729716 293.71930245 -145.60888672 281.84277344 C-140.93707704 272.81725589 -136.2781325 263.78515989 -131.625 254.75 C-131.27140411 254.06343323 -130.91780823 253.37686646 -130.55349731 252.66949463 C-128.035317 247.77984219 -125.51760339 242.88994951 -123 238 C-120.125321 232.41650133 -117.25041932 226.83311746 -114.375 221.25 C-114.02100128 220.56262756 -113.66700256 219.87525513 -113.30227661 219.16705322 C-107.79226202 208.46898786 -102.26624021 197.77930085 -96.73388672 187.09277344 C-91.80592795 177.57040272 -86.90083491 168.03635367 -82 158.5 C-75.88710794 146.60514909 -69.75729722 134.71930256 -63.60888672 122.84277344 C-58.93707704 113.81725589 -54.2781325 104.78515989 -49.625 95.75 C-49.27140411 95.06343323 -48.91780823 94.37686646 -48.55349731 93.66949463 C-46.035317 88.77984219 -43.51760339 83.88994951 -41 79 C-24.64748402 47.2384533 -24.64748402 47.2384533 -16.94219971 32.32409668 C-16.04735019 30.59166986 -15.15329163 28.85883455 -14.25927734 27.12597656 C-9.56732608 18.04992004 -4.78122663 9.03120585 0 0 Z M94 105 C86.14252765 119.71643783 78.63861857 134.60108698 71.19963074 149.53227615 C69.57786957 152.78598091 67.95337388 156.03831979 66.32910156 159.29077148 C62.21698671 167.525977 58.10829428 175.76288802 54 184 C49.56046874 192.90124066 45.12028721 201.80215374 40.67615891 210.70110035 C39.07064805 213.91622692 37.46596928 217.13176256 35.86340332 220.34835815 C29.43254884 233.25565479 22.9435181 246.12131219 16.18536377 258.86080933 C12.99941508 264.87348144 9.94391978 270.95023441 6.8984375 277.03515625 C6.28501499 278.25876937 5.67153914 279.48235574 5.05801392 280.70591736 C3.79819776 283.2196777 2.53994133 285.73421114 1.28271484 288.24926758 C-0.32934654 291.47349402 -1.94699676 294.69488399 -3.56588173 297.91568851 C-4.82276263 300.41838353 -6.07604548 302.92286698 -7.32828903 305.42788506 C-8.21223874 307.19403704 -9.09981877 308.95837057 -9.98745728 310.72267151 C-10.77991348 312.31219887 -10.77991348 312.31219887 -11.58837891 313.93383789 C-12.05563385 314.86692276 -12.52288879 315.80000763 -13.00430298 316.7613678 C-14.13546462 318.89621951 -14.13546462 318.89621951 -14 321 C57.28 321 128.56 321 202 321 C200.28456338 315.83551125 200.28456338 315.83551125 198.11408043 310.9820652 C197.55947248 309.86687616 197.55947248 309.86687616 196.99366033 308.72915804 C196.59093644 307.92953595 196.18821255 307.12991386 195.77328491 306.30606079 C195.34280306 305.44338825 194.91232122 304.5807157 194.46879447 303.69190156 C193.02774946 300.80652167 191.58101085 297.92403526 190.13427734 295.04150391 C189.09916905 292.97185154 188.06441317 290.90202289 187.02998352 288.83203125 C184.22178804 283.2150662 181.40866434 277.60058233 178.59465742 271.98652697 C175.65429124 266.11829253 172.7184524 260.24779404 169.78213501 254.37753296 C164.85355916 244.52555912 159.92192576 234.67512004 154.98828125 224.82568359 C149.90730193 214.68209154 144.82800885 204.53765807 139.75097656 194.39208984 C139.43786747 193.76639711 139.12475839 193.14070438 138.80216114 192.49605127 C137.23134739 189.35703389 135.66056672 186.21799996 134.0898025 183.0789578 C121.06499709 157.05007009 108.03433686 131.02411597 95 105 C94.67 105 94.34 105 94 105 Z " fill="currentColor" transform="translate(2666,469)"/>
<path d="M0 0 C17.00367318 14.60190434 28.29128798 35.04716973 30.77734375 57.3984375 C32.23861522 85.38564659 25.31821824 108.72511577 6.53515625 129.9296875 C-8.39691549 145.79195387 -29.52153408 155.69861645 -51.26953125 156.78125 C-68.06384534 157.25124491 -83.23621785 155.43170853 -98.22265625 147.3984375 C-99.18429687 146.90730469 -100.1459375 146.41617188 -101.13671875 145.91015625 C-109.31778891 141.48138571 -115.69141791 135.92039851 -122.22265625 129.3984375 C-123.33640625 128.30208984 -123.33640625 128.30208984 -124.47265625 127.18359375 C-141.0968681 109.7476528 -146.91274596 86.26249689 -146.46875 62.84765625 C-145.63360982 38.8280275 -134.34744318 17.77866847 -117.22265625 1.3984375 C-83.72016967 -27.73415952 -34.06439706 -28.05548324 0 0 Z " fill="currentColor" transform="translate(427.22265625,699.6015625)"/>
<path d="M0 0 C2.30775746 -0.02656999 4.61548412 -0.05594879 6.923172 -0.08799744 C11.75486024 -0.1386624 16.58346638 -0.13894371 21.4152832 -0.10668945 C27.57871649 -0.07186493 33.72894409 -0.18684508 39.89010143 -0.3435297 C44.65667971 -0.44358733 49.42013152 -0.45027466 54.18758583 -0.4310894 C56.45661526 -0.43532102 58.72582767 -0.47076289 60.99382591 -0.53929329 C78.13885923 -0.99540455 78.13885923 -0.99540455 83.93663788 3.9132576 C88.13502918 8.64669592 91.27840653 13.88461819 94.25348473 19.44621658 C96.38603711 23.31939037 98.90144089 26.90539726 101.41796875 30.53515625 C102.34609581 31.92394588 103.27157998 33.31450868 104.19335938 34.70751953 C104.65427979 35.40298889 105.1152002 36.09845825 105.59008789 36.81500244 C106.0618042 37.5270282 106.53352051 38.23905396 107.01953125 38.97265625 C108.55226601 41.281558 110.08563641 43.59003671 111.61907959 45.89846802 C112.67329282 47.48557017 113.7272068 49.07287115 114.78082275 50.66036987 C118.67817149 56.52932995 122.59903878 62.3821961 126.52734375 68.23046875 C128.19379374 70.71527196 129.85982952 73.2003523 131.5256958 75.68554688 C132.60190444 77.28912737 133.67965554 78.8916738 134.75897217 80.49316406 C136.25623141 82.71534279 137.74785384 84.94120439 139.23828125 87.16796875 C139.91142868 88.16221359 139.91142868 88.16221359 140.59817505 89.17654419 C143.64453125 93.74490129 143.64453125 93.74490129 143.64453125 95.97265625 C68.07453125 95.97265625 -7.49546875 95.97265625 -85.35546875 95.97265625 C-83.63698667 91.67645104 -81.91694095 88.57638875 -79.3671875 84.77734375 C-78.96040771 84.1686142 -78.55362793 83.55988464 -78.13452148 82.93270874 C-76.77521138 80.90127342 -75.40918122 78.87445465 -74.04296875 76.84765625 C-73.07689193 75.40745316 -72.1111614 73.96701773 -71.14575195 72.52636719 C-68.47407206 68.54289141 -65.79572688 64.56393836 -63.11572266 60.58605957 C-61.28303132 57.86511028 -59.45189364 55.1431207 -57.62109375 52.42089844 C-53.76414589 46.68651507 -49.90445199 40.95398642 -46.04296875 35.22265625 C-45.42658539 34.307724 -44.81020203 33.39279175 -44.17514038 32.45013428 C-42.38600526 29.79549642 -40.5955797 27.14173397 -38.8046875 24.48828125 C-38.28656494 23.71946625 -37.76844238 22.95065125 -37.23461914 22.15853882 C-36.19172997 20.61458558 -35.12726769 19.08501805 -34.04338074 17.56956482 C-32.23064696 14.9150027 -32.23064696 14.9150027 -30.7726593 11.55751038 C-24.32860315 -1.4562371 -13.12733301 -0.05093837 0 0 Z " fill="currentColor" transform="translate(340.35546875,482.02734375)"/>
<path d="M0 0 C74.91 0 149.82 0 227 0 C225.60611708 3.48470729 224.57697822 5.88421931 222.57666016 8.87792969 C221.85417587 9.96627106 221.85417587 9.96627106 221.11709595 11.07659912 C220.59634491 11.85054016 220.07559387 12.6244812 219.5390625 13.421875 C218.99325531 14.24012756 218.44744812 15.05838013 217.88510132 15.90142822 C216.72555277 17.63773198 215.56376297 19.37254075 214.39990234 21.10595703 C212.66116513 23.6961254 210.92957053 26.29094325 209.19921875 28.88671875 C200.35509544 42.12387902 200.35509544 42.12387902 196.24511719 47.89648438 C195.80253067 48.52141281 195.35994415 49.14634125 194.90394592 49.79020691 C193.96760964 51.08765253 193.0101926 52.37009354 192.03440857 53.63813782 C188.84256943 57.90934076 186.38601241 62.18601596 184.18170452 67.02095127 C173.4860982 90.16276904 173.4860982 90.16276904 162.51398468 95.12412262 C149.17895672 99.51007762 134.68252709 99.05179405 120.81713867 98.68676758 C116.13746871 98.56740573 111.51093498 98.6152644 106.8347168 98.83032227 C70.89791963 100.48227025 70.89791963 100.48227025 59.60058212 92.25198746 C49.64836256 83.14300019 43.4515828 70.79572239 37.50601196 58.87637329 C34.30167595 52.495999 30.36990836 46.81037102 26.23046875 41.00390625 C25.01871287 39.21913275 23.81210659 37.43084927 22.61132812 35.63867188 C20.86091223 33.04343459 19.11041753 30.44825075 17.35961914 27.85327148 C15.56633244 25.19530923 13.77336316 22.53713313 11.98046875 19.87890625 C11.46179733 19.11026749 10.94312592 18.34162872 10.40873718 17.54969788 C9.42978123 16.097937 8.45236256 14.64513805 7.47665405 13.19119263 C6.42359942 11.62857507 5.36213853 10.07160883 4.29507446 8.51852417 C3.46899185 7.30653854 3.46899185 7.30653854 2.6262207 6.07006836 C2.12331009 5.33807724 1.62039948 4.60608612 1.10224915 3.85191345 C0 2 0 2 0 0 Z " fill="currentColor" transform="translate(256,958)"/>
</svg>
